<svg width="24" height="24" viewBox="0 0 24 24" fill="none" xmlns="http://www.w3.org/2000/svg">
<path d="M1 11V12H2H8.5L10.4 14.5333C11.2 15.6 12.8 15.6 13.6 14.5333L15.5 12H22H23V11C23 9.34315 21.6569 8 20 8H4C2.34315 8 1 9.34315 1 11Z" stroke="white" stroke-width="2"/>
<path fill-rule="evenodd" clip-rule="evenodd" d="M0 5C0 3.89543 0.895431 3 2 3H22C23.1046 3 24 3.89543 24 5V19C24 20.1046 23.1046 21 22 21H2C0.89543 21 0 20.1046 0 19V5ZM2 7C2 5.89543 2.89543 5 4 5H20C21.1046 5 22 5.89543 22 7V9H20C21.1046 9 22 9.89543 22 11H15L12.8 13.9333C12.4 14.4667 11.6 14.4667 11.2 13.9333L9 11H2C2 9.89543 2.89543 9 4 9H2V7Z" fill="white"/>
</svg>
