<svg width="34" height="30" viewBox="0 0 34 30" fill="none" xmlns="http://www.w3.org/2000/svg">
<path fill-rule="evenodd" clip-rule="evenodd" d="M30.0002 2.72729C30.0002 4.23352 28.7793 5.45459 27.2729 5.45459C25.8464 5.45459 24.6758 4.3595 24.5559 2.96411L19.2798 1.8335L17.6941 9.5636C21.425 9.71936 24.7776 10.8639 27.2285 12.6296C27.8843 11.9871 28.7825 11.5909 29.7732 11.5909C31.7815 11.5909 33.4094 13.219 33.4094 15.2273C33.4094 16.7057 32.5271 17.978 31.2605 18.5465C31.3289 18.9485 31.364 19.3578 31.364 19.7727C31.364 25.4211 24.8518 30 16.8184 30C8.78516 30 2.27295 25.4211 2.27295 19.7727C2.27295 19.3878 2.30322 19.0078 2.36206 18.634C0.982178 18.1177 0 16.7872 0 15.2273C0 13.219 1.62817 11.5909 3.63647 11.5909C4.67603 11.5909 5.61353 12.0271 6.27612 12.7263C8.81616 10.8481 12.3608 9.64795 16.3044 9.55164L18.0361 1.11023C18.1375 0.615356 18.623 0.298218 19.1172 0.404053L24.7808 1.61768C25.2058 0.664429 26.1619 0 27.2729 0C28.7793 0 30.0002 1.22107 30.0002 2.72729ZM11.1365 20.6819C12.6428 20.6819 13.8638 19.4608 13.8638 17.9546C13.8638 16.4484 12.6428 15.2273 11.1365 15.2273C9.63013 15.2273 8.40918 16.4484 8.40918 17.9546C8.40918 19.4608 9.63013 20.6819 11.1365 20.6819ZM25.2273 17.9546C25.2273 19.4608 24.0063 20.6819 22.5 20.6819C20.9937 20.6819 19.7727 19.4608 19.7727 17.9546C19.7727 16.4484 20.9937 15.2273 22.5 15.2273C24.0063 15.2273 25.2273 16.4484 25.2273 17.9546ZM11.353 23.5734C11.0671 23.3282 10.6367 23.3613 10.3916 23.6473C10.1467 23.9332 10.1797 24.3636 10.4656 24.6086C12.2019 26.0969 14.5564 26.8182 16.8611 26.8182C19.165 26.8182 21.4968 26.0972 23.1807 24.6006C23.304 24.4908 23.3782 24.3463 23.4016 24.1949C23.4314 24.0011 23.3777 23.796 23.2373 23.6381C22.9871 23.3566 22.5562 23.3313 22.2747 23.5814C20.8901 24.8121 18.9038 25.4547 16.8611 25.4547C14.8193 25.4547 12.7986 24.8124 11.353 23.5734Z" fill="white"/>
<circle cx="27.2729" cy="2.72728" r="2.72728" fill="url(#paint0_linear)"/>
<defs>
<linearGradient id="paint0_linear" x1="27" y1="2.49471e-08" x2="27" y2="5.5" gradientUnits="userSpaceOnUse">
<stop stop-color="#FF7D14"/>
<stop offset="1" stop-color="#EE0B21"/>
</linearGradient>
</defs>
</svg>
