<svg width="250" height="250" viewBox="0 0 250 250" fill="none" xmlns="http://www.w3.org/2000/svg">
<g clip-path="url(#clip0)">
<path d="M78.62 249.59C172.96 249.59 224.56 171.43 224.56 103.65C224.56 101.43 224.56 99.22 224.41 97.02C234.448 89.7591 243.114 80.7688 250 70.47C240.639 74.618 230.708 77.3383 220.54 78.54C231.247 72.1298 239.261 62.0477 243.09 50.17C233.022 56.1446 222.006 60.3551 210.52 62.62C202.787 54.3968 192.559 48.9517 181.419 47.1271C170.279 45.3026 158.848 47.2004 148.895 52.5268C138.943 57.8532 131.023 66.3114 126.362 76.5924C121.701 86.8734 120.558 98.404 123.11 109.4C102.718 108.378 82.768 103.078 64.5564 93.8459C46.3448 84.6135 30.2784 71.6544 17.4 55.81C10.8409 67.1016 8.832 80.4686 11.7823 93.1894C14.7326 105.91 22.4202 117.028 33.28 124.28C25.1174 124.038 17.1328 121.836 10 117.86C10 118.07 10 118.29 10 118.51C10.0032 130.352 14.1026 141.829 21.6028 150.993C29.103 160.157 39.5423 166.445 51.15 168.79C43.5987 170.849 35.6758 171.15 27.99 169.67C31.2676 179.862 37.6486 188.774 46.2407 195.161C54.8328 201.547 65.2061 205.089 75.91 205.29C57.7474 219.564 35.3106 227.313 12.21 227.29C8.12903 227.282 4.05204 227.035 0 226.55C23.4564 241.603 50.7491 249.587 78.62 249.55" fill="#1DA1F2"/>
</g>
<defs>
<clipPath id="clip0">
<rect width="250" height="250" fill="white"/>
</clipPath>
</defs>
</svg>
