<svg width="48" height="48" viewBox="0 0 48 48" fill="none" xmlns="http://www.w3.org/2000/svg">
<rect width="48" height="48" rx="8" fill="url(#paint0_linear)"/>
<g filter="url(#filter0_d)">
<path fill-rule="evenodd" clip-rule="evenodd" d="M28.4523 37.5552C28.4489 37.5589 28.4502 37.5575 28.4502 37.5575L27.1391 39H15.4949L14.9545 35.2163L14.8676 34.604C14.8118 34.2098 14.7312 33.6374 14.6314 32.9232C14.4318 31.4951 14.1555 29.4991 13.8485 27.2263C13.2357 22.6906 12.4956 17.0168 12 12.5555L20.7575 11.5822C21.241 15.9347 21.9695 21.5231 22.5805 26.046C22.7834 27.5476 22.9728 28.9278 23.1352 30.1011C23.8963 29.0569 24.8795 27.564 25.7777 25.767C27.6294 22.0625 28.8769 17.5689 27.7694 13.1377L36.3177 11C38.1473 18.3206 35.9681 25.089 33.6589 29.7087C32.4838 32.0595 31.2115 33.9846 30.2312 35.3264C29.7388 36.0004 29.314 36.5355 29.0031 36.9123C28.8474 37.101 28.7198 37.2506 28.6259 37.3588C28.5789 37.4129 28.5403 37.4567 28.5108 37.4899L28.4734 37.5317L28.46 37.5466L28.4523 37.5552Z" fill="white"/>
</g>
<defs>
<filter id="filter0_d" x="10" y="10" width="29" height="32" filterUnits="userSpaceOnUse" color-interpolation-filters="sRGB">
<feFlood flood-opacity="0" result="BackgroundImageFix"/>
<feColorMatrix in="SourceAlpha" type="matrix" values="0 0 0 0 0 0 0 0 0 0 0 0 0 0 0 0 0 0 127 0"/>
<feOffset dy="1"/>
<feGaussianBlur stdDeviation="1"/>
<feColorMatrix type="matrix" values="0 0 0 0 0 0 0 0 0 0 0 0 0 0 0 0 0 0 0.2 0"/>
<feBlend mode="normal" in2="BackgroundImageFix" result="effect1_dropShadow"/>
<feBlend mode="normal" in="SourceGraphic" in2="effect1_dropShadow" result="shape"/>
</filter>
<linearGradient id="paint0_linear" x1="24" y1="0" x2="24" y2="48" gradientUnits="userSpaceOnUse">
<stop stop-color="#5DC3F3"/>
<stop offset="1" stop-color="#3A96CD"/>
</linearGradient>
</defs>
</svg>
