<svg width="80" height="80" viewBox="0 0 80 80" version="2.0" xmlns="http://www.w3.org/2000/svg" xmlns:xlink="http://www.w3.org/1999/xlink" xmlns:figma="http://www.figma.com/figma/ns">
<title>Basketball-Icon</title>
<desc>Created using Figma (9000)</desc>
<g id="Canvas" transform="translate(-2895 -485)" figma:type="canvas">
<g id="Basketball-Icon" style="mix-blend-mode:normal;" figma:type="group">
<g id="Oval 6" style="mix-blend-mode:normal;" figma:type="vector">
<use xlink:href="#path0_fill" transform="translate(2895 485)" fill="#F99134" style="mix-blend-mode:normal;"/>
</g>
<g id="Basketball" style="mix-blend-mode:normal;" figma:type="vector">
<use xlink:href="#path1_fill" transform="translate(2907 497)" fill="#FFFFFF" style="mix-blend-mode:normal;"/>
<use xlink:href="#path2_fill" transform="translate(2907 497)" fill="#FFFFFF" style="mix-blend-mode:normal;"/>
<use xlink:href="#path3_fill" transform="translate(2907 497)" fill="#FFFFFF" style="mix-blend-mode:normal;"/>
<use xlink:href="#path4_fill" transform="translate(2907 497)" fill="#FFFFFF" style="mix-blend-mode:normal;"/>
<use xlink:href="#path5_fill" transform="translate(2907 497)" fill="#FFFFFF" style="mix-blend-mode:normal;"/>
<use xlink:href="#path6_fill" transform="translate(2907 497)" fill="#FFFFFF" style="mix-blend-mode:normal;"/>
<use xlink:href="#path7_fill" transform="translate(2907 497)" fill="#FFFFFF" style="mix-blend-mode:normal;"/>
<use xlink:href="#path8_fill" transform="translate(2907 497)" fill="#FFFFFF" style="mix-blend-mode:normal;"/>
</g>
</g>
</g>
<defs>
<path id="path0_fill" fill-rule="evenodd" d="
M 40 80
C 62.0914 80 80 62.0914 80 40
C 80 17.9086 62.0914 0 40 0
C 17.9086 0 0 17.9086 0 40
C 0 62.0914 17.9086 80 40 80
Z"/>
<path id="path1_fill" d="
M 46.0955 49.3819
C 46.6842 48.8832 47.2571 48.3563 47.8125 47.8012
C 53.0196 42.597 55.7488 35.8541 56 29.037
L 39.1573 29.037
C 39.293 36.2103 41.6058 43.3502 46.0955 49.3819
Z"/>
<path id="path2_fill" d="
M 8.18751 47.8012
C 8.86616 48.4795 9.57096 49.1156 10.2987 49.7098
C 14.9506 43.6098 17.3457 36.3407 17.4839 29.037
L 0.0152696 29.037
L 0 29.037
C 0.251191 35.8541 2.98036 42.597 8.18751 47.8012
Z"/>
<path id="path3_fill" d="
M 9.95329 6.57682
C 9.34749 7.08773 8.75825 7.6284 8.18751 8.19881
C 2.98036 13.403 0.251191 20.1459 1.41451e-11 26.963
L 0.0152696 26.963
L 17.4625 26.963
C 17.176 19.7283 14.673 12.5648 9.95329 6.57682
Z"/>
<path id="path4_fill" d="
M 47.8125 8.19881
C 47.3631 7.7497 46.9023 7.31904 46.4309 6.90682
C 41.8773 12.8271 39.4599 19.8607 39.1787 26.963
L 56 26.963
C 55.7488 20.1459 53.0196 13.403 47.8125 8.19881
Z"/>
<path id="path5_fill" d="
M 27.5812 0
C 21.9559 0.0835091 16.3509 1.84986 11.5871 5.29906
C 16.6006 11.6612 19.251 19.2762 19.5384 26.963
L 27.5812 26.963
L 27.5812 0
Z"/>
<path id="path6_fill" d="
M 44.8199 5.59939
C 40.3155 2.21222 35.022 0.360913 29.6549 0.0454794
L 29.6549 26.963
L 37.1028 26.963
C 37.3857 19.3968 39.958 11.9001 44.8199 5.59939
Z"/>
<path id="path7_fill" d="
M 27.5812 56
L 27.5812 29.037
L 19.5586 29.037
C 19.4202 36.7821 16.8849 44.4923 11.9528 50.9613
C 16.6365 54.239 22.0992 55.9186 27.5812 56
Z"/>
<path id="path8_fill" d="
M 44.464 50.6639
C 39.6793 44.2567 37.2188 36.6637 37.0826 29.037
L 29.6549 29.037
L 29.6549 55.9545
C 34.8812 55.6474 40.0379 53.8838 44.464 50.6639
Z"/>
</defs>
</svg>
