<svg width="80" height="80" viewBox="0 0 80 80" version="2.0" xmlns="http://www.w3.org/2000/svg" xmlns:xlink="http://www.w3.org/1999/xlink" xmlns:figma="http://www.figma.com/figma/ns">
<title>Book-Icon</title>
<desc>Created using Figma (9000)</desc>
<g id="Canvas" transform="translate(-2607 -485)" figma:type="canvas">
<g id="Book-Icon" style="mix-blend-mode:normal;" figma:type="group">
<g id="Oval 6" style="mix-blend-mode:normal;" figma:type="vector">
<use xlink:href="#path0_fill" transform="translate(2607 485)" fill="#F99134" style="mix-blend-mode:normal;"/>
</g>
<g id="Group 2" style="mix-blend-mode:normal;" figma:type="group">
<g id="Combined Shape" style="mix-blend-mode:normal;" figma:type="vector-operation">
<use xlink:href="#path1_fill" transform="translate(2619 507)" fill="#FFFFFF" style="mix-blend-mode:normal;"/>
</g>
<g id="Combined Shape Copy" style="mix-blend-mode:normal;" figma:type="vector-operation">
<use xlink:href="#path2_fill" transform="translate(2648.57 507)" fill="#FFFFFF" style="mix-blend-mode:normal;"/>
</g>
</g>
</g>
</g>
<defs>
<path id="path0_fill" fill-rule="evenodd" d="
M 40 80
C 62.0914 80 80 62.0914 80 40
C 80 17.9086 62.0914 0 40 0
C 17.9086 0 0 17.9086 0 40
C 0 62.0914 17.9086 80 40 80
Z"/>
<path id="path1_fill" d="
M 13.215 0
C 3.38118 1.49033e-15 0 4.58163 0 4.58163
L 0 35.6471
C 3.02239 33.4554 7.81701 32.0392 13.215 32.0392
C 18.613 32.0392 23.4076 33.4554 26.43 35.6471
L 26.43 4.58163
C 26.43 4.58163 23.0488 -1.49033e-15 13.215 0
Z"/>
<path id="path2_fill" d="
M 13.215 0
C 3.38118 1.49033e-15 0 4.58163 0 4.58163
L 0 35.6471
C 3.02239 33.4554 7.81701 32.0392 13.215 32.0392
C 18.613 32.0392 23.4076 33.4554 26.43 35.6471
L 26.43 4.58163
C 26.43 4.58163 23.0488 -1.49033e-15 13.215 0
Z"/>
</defs>
</svg>
