<svg width="80" height="80" viewBox="0 0 80 80" version="2.0" xmlns="http://www.w3.org/2000/svg" xmlns:xlink="http://www.w3.org/1999/xlink" xmlns:figma="http://www.figma.com/figma/ns">
<title>Design-Icon</title>
<desc>Created using Figma (9000)</desc>
<g id="Canvas" transform="translate(-3183 -485)" figma:type="canvas">
<g id="Design-Icon" style="mix-blend-mode:normal;" figma:type="group">
<g id="Oval 6" style="mix-blend-mode:normal;" figma:type="vector">
<use xlink:href="#path0_fill" transform="translate(3183 485)" fill="#F99134" style="mix-blend-mode:normal;"/>
</g>
<g id="Union" style="mix-blend-mode:normal;" figma:type="vector">
<use xlink:href="#path1_fill" transform="translate(3199 527)" fill="#FFFFFF" style="mix-blend-mode:normal;"/>
<mask id="mask0_outline_out">
<rect id="mask0_outline_inv" fill="white" x="-6" y="-3" width="60" height="24" transform="translate(3199 527)"/>
<use xlink:href="#path1_fill" fill="black" transform="translate(3199 527)"/>
</mask>
<g mask="url(#mask0_outline_out)">
<use xlink:href="#path2_stroke_2x" transform="translate(3199 527)" fill="#F99134" style="mix-blend-mode:normal;"/>
</g>
</g>
<g id="Union" style="mix-blend-mode:normal;" figma:type="vector">
<use xlink:href="#path1_fill" transform="translate(3199 516)" fill="#FFFFFF" style="mix-blend-mode:normal;"/>
<mask id="mask1_outline_out">
<rect id="mask1_outline_inv" fill="white" x="-6" y="-3" width="60" height="24" transform="translate(3199 516)"/>
<use xlink:href="#path1_fill" fill="black" transform="translate(3199 516)"/>
</mask>
<g mask="url(#mask1_outline_out)">
<use xlink:href="#path2_stroke_2x" transform="translate(3199 516)" fill="#F99134" style="mix-blend-mode:normal;"/>
</g>
</g>
<g id="Union" style="mix-blend-mode:normal;" figma:type="vector">
<use xlink:href="#path1_fill" transform="translate(3199 505)" fill="#FFFFFF" style="mix-blend-mode:normal;"/>
<mask id="mask2_outline_out">
<rect id="mask2_outline_inv" fill="white" x="-6" y="-3" width="60" height="24" transform="translate(3199 505)"/>
<use xlink:href="#path1_fill" fill="black" transform="translate(3199 505)"/>
</mask>
<g mask="url(#mask2_outline_out)">
<use xlink:href="#path2_stroke_2x" transform="translate(3199 505)" fill="#F99134" style="mix-blend-mode:normal;"/>
</g>
</g>
</g>
</g>
<defs>
<path id="path0_fill" fill-rule="evenodd" d="
M 40 80
C 62.0914 80 80 62.0914 80 40
C 80 17.9086 62.0914 0 40 0
C 17.9086 0 0 17.9086 0 40
C 0 62.0914 17.9086 80 40 80
Z"/>
<path id="path1_fill" d="
M 0 9
L 24 18
L 48 9
L 24 0
L 0 9
Z"/>
<path id="path2_stroke_2x" d="
M 24 18
L 23.2978 19.8727
L 24 20.136
L 24.7022 19.8727
L 24 18
Z
M 0 9
L -0.702247 7.12734
L -5.696 9
L -0.702247 10.8727
L 0 9
Z
M 48 9
L 48.7022 10.8727
L 53.696 9
L 48.7022 7.12734
L 48 9
Z
M 24 0
L 24.7022 -1.87266
L 24 -2.136
L 23.2978 -1.87266
L 24 0
Z
M 24.7022 16.1273
L 0.702247 7.12734
L -0.702247 10.8727
L 23.2978 19.8727
L 24.7022 16.1273
Z
M 47.2978 7.12734
L 23.2978 16.1273
L 24.7022 19.8727
L 48.7022 10.8727
L 47.2978 7.12734
Z
M 23.2978 1.87266
L 47.2978 10.8727
L 48.7022 7.12734
L 24.7022 -1.87266
L 23.2978 1.87266
Z
M 0.702247 10.8727
L 24.7022 1.87266
L 23.2978 -1.87266
L -0.702247 7.12734
L 0.702247 10.8727
Z"/>
</defs>
</svg>
