<svg width="48" height="48" viewBox="0 0 48 48" fill="none" xmlns="http://www.w3.org/2000/svg">
<rect width="48" height="48" rx="8" fill="#FFF8B7"/>
<rect y="32" width="48" height="2" fill="#EBE4A1"/>
<rect y="22" width="48" height="2" fill="#EBE4A1"/>
<path fill-rule="evenodd" clip-rule="evenodd" d="M1.16992 44C0.883545 43.4111 0.66748 42.7502 0.50415 42H47.4958C47.3325 42.7502 47.1165 43.4111 46.8301 44H1.16992Z" fill="#EBE4A1"/>
<path d="M0 14C0 8.38215 0 5.57323 1.34824 3.55544C1.93191 2.68192 2.68192 1.93191 3.55544 1.34824C5.57323 0 8.38215 0 14 0H34C39.6178 0 42.4268 0 44.4446 1.34824C45.3181 1.93191 46.0681 2.68192 46.6518 3.55544C48 5.57323 48 8.38215 48 14V14H0V14Z" fill="url(#paint0_linear)"/>
<g filter="url(#filter0_d)">
<path d="M8 7C8 6.44772 8.44772 6 9 6H17C17.5523 6 18 6.44772 18 7V7C18 7.55228 17.5523 8 17 8H9C8.44772 8 8 7.55228 8 7V7Z" fill="url(#paint1_linear)"/>
</g>
<g filter="url(#filter1_d)">
<path d="M30 7C30 6.44772 30.4477 6 31 6H39C39.5523 6 40 6.44772 40 7V7C40 7.55228 39.5523 8 39 8H31C30.4477 8 30 7.55228 30 7V7Z" fill="url(#paint2_linear)"/>
</g>
<defs>
<filter id="filter0_d" x="6" y="5" width="14" height="6" filterUnits="userSpaceOnUse" color-interpolation-filters="sRGB">
<feFlood flood-opacity="0" result="BackgroundImageFix"/>
<feColorMatrix in="SourceAlpha" type="matrix" values="0 0 0 0 0 0 0 0 0 0 0 0 0 0 0 0 0 0 127 0"/>
<feOffset dy="1"/>
<feGaussianBlur stdDeviation="1"/>
<feColorMatrix type="matrix" values="0 0 0 0 0 0 0 0 0 0 0 0 0 0 0 0 0 0 0.5 0"/>
<feBlend mode="normal" in2="BackgroundImageFix" result="effect1_dropShadow"/>
<feBlend mode="normal" in="SourceGraphic" in2="effect1_dropShadow" result="shape"/>
</filter>
<filter id="filter1_d" x="28" y="5" width="14" height="6" filterUnits="userSpaceOnUse" color-interpolation-filters="sRGB">
<feFlood flood-opacity="0" result="BackgroundImageFix"/>
<feColorMatrix in="SourceAlpha" type="matrix" values="0 0 0 0 0 0 0 0 0 0 0 0 0 0 0 0 0 0 127 0"/>
<feOffset dy="1"/>
<feGaussianBlur stdDeviation="1"/>
<feColorMatrix type="matrix" values="0 0 0 0 0 0 0 0 0 0 0 0 0 0 0 0 0 0 0.5 0"/>
<feBlend mode="normal" in2="BackgroundImageFix" result="effect1_dropShadow"/>
<feBlend mode="normal" in="SourceGraphic" in2="effect1_dropShadow" result="shape"/>
</filter>
<linearGradient id="paint0_linear" x1="24" y1="0" x2="24" y2="14" gradientUnits="userSpaceOnUse">
<stop stop-color="#69490C"/>
<stop offset="1" stop-color="#543A08"/>
</linearGradient>
<linearGradient id="paint1_linear" x1="13" y1="6" x2="13" y2="8" gradientUnits="userSpaceOnUse">
<stop stop-color="#E0E0E0"/>
<stop offset="1" stop-color="#C4C4C4"/>
</linearGradient>
<linearGradient id="paint2_linear" x1="35" y1="6" x2="35" y2="8" gradientUnits="userSpaceOnUse">
<stop stop-color="#E0E0E0"/>
<stop offset="1" stop-color="#C4C4C4"/>
</linearGradient>
</defs>
</svg>
