<svg width="48" height="48" viewBox="0 0 48 48" fill="none" xmlns="http://www.w3.org/2000/svg">
<rect width="48" height="48" rx="8" fill="url(#paint0_linear)"/>
<g filter="url(#filter0_d)">
<path fill-rule="evenodd" clip-rule="evenodd" d="M8.0708 24C8.55615 27.3923 11.4736 30 15 30C18.866 30 22 26.866 22 23C22 22.4684 21.9407 21.9506 21.8284 21.4529C22.4773 21.3222 23.2239 21.2502 24 21.2502C24.7761 21.2502 25.5227 21.3222 26.1716 21.4529C26.0593 21.9506 26 22.4684 26 23C26 26.866 29.134 30 33 30C36.5264 30 39.4438 27.3923 39.9292 24H43C43.5522 24 44 23.5523 44 23C44 22.4477 43.5522 22 43 22H39.9292C39.4438 18.6077 36.5264 16 33 16C30.3823 16 28.0999 17.437 26.8992 19.5652C25.9861 19.3487 24.9741 19.2502 24 19.2502C23.0259 19.2502 22.0139 19.3487 21.1008 19.5652C19.9001 17.437 17.6177 16 15 16C11.4736 16 8.55615 18.6077 8.0708 22H5C4.44775 22 4 22.4477 4 23C4 23.5523 4.44775 24 5 24H8.0708ZM15 28C17.7615 28 20 25.7614 20 23C20 20.2386 17.7615 18 15 18C12.2385 18 10 20.2386 10 23C10 25.7614 12.2385 28 15 28ZM33 28C35.7615 28 38 25.7614 38 23C38 20.2386 35.7615 18 33 18C30.2385 18 28 20.2386 28 23C28 25.7614 30.2385 28 33 28Z" fill="url(#paint1_linear)"/>
</g>
<defs>
<filter id="filter0_d" x="2" y="15" width="44" height="18" filterUnits="userSpaceOnUse" color-interpolation-filters="sRGB">
<feFlood flood-opacity="0" result="BackgroundImageFix"/>
<feColorMatrix in="SourceAlpha" type="matrix" values="0 0 0 0 0 0 0 0 0 0 0 0 0 0 0 0 0 0 127 0"/>
<feOffset dy="1"/>
<feGaussianBlur stdDeviation="1"/>
<feColorMatrix type="matrix" values="0 0 0 0 0 0 0 0 0 0 0 0 0 0 0 0 0 0 0.7 0"/>
<feBlend mode="normal" in2="BackgroundImageFix" result="effect1_dropShadow"/>
<feBlend mode="normal" in="SourceGraphic" in2="effect1_dropShadow" result="shape"/>
</filter>
<linearGradient id="paint0_linear" x1="24" y1="0" x2="24" y2="48" gradientUnits="userSpaceOnUse">
<stop stop-color="#252626"/>
<stop offset="1" stop-color="#14161A"/>
</linearGradient>
<linearGradient id="paint1_linear" x1="24" y1="16" x2="24" y2="30" gradientUnits="userSpaceOnUse">
<stop stop-color="#D8E4F2"/>
<stop offset="1" stop-color="#A7AFB8"/>
</linearGradient>
</defs>
</svg>
