<svg width="32" height="33" viewBox="0 0 32 33" fill="none" xmlns="http://www.w3.org/2000/svg">
<path fill-rule="evenodd" clip-rule="evenodd" d="M8.75732 0.294678C4.18872 0.60498 0.507813 4.13635 0.177734 8.70349C0.0722656 10.1654 4.96675e-09 11.6564 4.96675e-09 13C-0.000244136 32 8.99976 35 21.9998 31V28C19.1184 28.9604 10.7017 30.8436 10.0413 24.788C12.0801 24.9114 14.1782 25 16 25C18.2075 25 20.8208 24.8699 23.2429 24.7053C27.8113 24.395 31.509 20.8652 31.8523 16.2992C31.9414 15.1166 32 13.9691 32 13C32 11.6564 31.9277 10.1655 31.822 8.70361C31.4922 4.13647 27.8113 0.60498 23.2427 0.294678C20.8208 0.130127 18.2073 0 16 0C13.7927 0 11.1792 0.130127 8.75732 0.294678Z" fill="#4888CE"/>
<circle cx="6.99976" cy="9" r="2" fill="white"/>
<path fill-rule="evenodd" clip-rule="evenodd" d="M11.9998 10C11.9998 7.79089 13.7905 6 15.9998 6C18.209 6 19.9998 7.79089 19.9998 10C19.9998 7.79089 21.7905 6 23.9998 6C26.209 6 27.9998 7.79089 27.9998 10V18H24.9998V10.5C24.9998 9.67163 24.3281 9 23.4998 9C22.6714 9 21.9998 9.67163 21.9998 10.5V15H17.9998V10.5C17.9998 9.67163 17.3281 9 16.4998 9C15.6714 9 14.9998 9.67163 14.9998 10.5V18H11.9998V10Z" fill="white"/>
</svg>
