<svg width="24" height="24" viewBox="0 0 24 24" fill="none" xmlns="http://www.w3.org/2000/svg">
<path fill-rule="evenodd" clip-rule="evenodd" d="M4.73746 14.9639C5.09946 16.3728 5.83281 17.7063 6.93193 18.8054C9.13101 21.0045 12.2433 21.7266 15.0423 20.9791L18.0633 24L24 18.0633L20.9791 15.0424C21.7266 12.2434 21.0044 9.13115 18.8054 6.93209C17.7059 5.83264 16.3719 5.09918 14.9625 4.73732L0 0L4.73746 14.9639ZM14.3883 6.75712C15.463 7.02325 16.4812 7.5763 17.3212 8.41626C19.2599 10.3549 19.6701 13.2432 18.552 15.5837L21.0316 18.0633L18.0633 21.0317L15.5837 18.5521C13.2431 19.6702 10.3548 19.2599 8.41611 17.3213C7.57645 16.4816 7.0235 15.4638 6.75726 14.3895L3.90916 5.39352L10.8409 12.3252C10.6539 13.0255 10.8351 13.8036 11.3845 14.3529C12.2042 15.1726 13.5331 15.1726 14.3528 14.3529C15.1725 13.5332 15.1725 12.2043 14.3528 11.3846C13.8035 10.8352 13.0254 10.6541 12.3251 10.8411L5.39314 3.90915L14.3883 6.75712Z" fill="white"/>
</svg>
