<?xml version="1.0" encoding="utf-8"?>
<!-- Generator: Adobe Illustrator 16.0.4, SVG Export Plug-In . SVG Version: 6.00 Build 0)  -->
<!DOCTYPE svg PUBLIC "-//W3C//DTD SVG 1.1//EN" "http://www.w3.org/Graphics/SVG/1.1/DTD/svg11.dtd">
<svg version="1.1" id="Layer_1" xmlns="http://www.w3.org/2000/svg" xmlns:xlink="http://www.w3.org/1999/xlink" x="0px" y="0px"
	 width="800.004px" height="800px" viewBox="0 0 800.004 800" enable-background="new 0 0 800.004 800" xml:space="preserve">
<rect x="-1178.443" y="409.059" fill="#6C99EA" width="296" height="26"/>
<g>
	<polygon fill="none" stroke="#6C99EA" stroke-width="9" stroke-miterlimit="10" points="-1005.066,275.552 -921.943,232.716 
		-921.943,160.408 -1033.943,218.103 -1033.943,116.559 -1102.943,116.559 -1102.943,253.646 -1145.332,275.482 -1102.943,297.316 
		-1102.943,393.559 -1033.943,393.559 -1033.943,332.857 -921.943,390.548 -921.943,318.388 	"/>
</g>
<rect x="-1178.443" y="785.059" fill="#6C99EA" width="296" height="26"/>
<polygon fill="none" stroke="#6C99EA" stroke-width="9" stroke-miterlimit="10" points="-921.943,536.408 -1033.943,594.103 
	-1033.943,492.559 -1102.943,492.559 -1102.943,629.646 -1145.332,651.482 -1102.943,673.316 -1102.943,769.559 -1033.943,769.559 
	-1033.943,708.857 -921.943,766.548 -921.943,694.388 -1005.066,651.552 -921.943,608.716 "/>
<polygon fill="#6C99EA" points="-951.885,274.827 -925.443,259.561 -925.443,247.297 -973.125,274.827 -925.443,302.355 
	-925.443,290.092 "/>
<rect x="-816.443" y="409.059" fill="none" stroke="#6C99EA" stroke-width="4" stroke-miterlimit="10" width="296" height="26"/>
<g>
	<polygon fill="#6C99EA" points="-638.566,275.552 -555.443,232.716 -555.443,160.408 -667.443,218.103 -667.443,117.059 
		-736.443,117.059 -736.443,253.646 -778.832,275.482 -736.443,297.316 -736.443,394.059 -667.443,394.059 -667.443,332.857 
		-555.443,390.548 -555.443,318.388 	"/>
</g>
<polygon fill="#6C99EA" points="-584.885,274.827 -558.443,259.561 -558.443,247.297 -606.125,274.827 -558.443,302.355 
	-558.443,290.092 "/>
<g>
	<path fill="#06285B" d="M-566.279,507.059l-94.164,163.098l-94.164-163.098h34.063l52.307,90.799l7.794,13.601l7.794-13.651
		l52.307-90.748h33.899 M-550.69,498.059h-54.849l-54.904,95.098l-54.904-95.098h-54.849l109.753,190.098L-550.69,498.059
		L-550.69,498.059z"/>
</g>
<g>
	<polygon fill="#06285B" points="-798.296,702.51 -732.443,664.49 -732.443,626.51 -864.08,702.51 -732.443,778.51 
		-732.443,740.529 	"/>
</g>
<polygon fill="#5785BC" points="-528.749,646.059 -522.443,658.059 -589.443,658.059 -583.134,646.059 "/>
<linearGradient id="SVGID_1_" gradientUnits="userSpaceOnUse" x1="-555.9414" y1="618.0586" x2="-555.9414" y2="665.1562">
	<stop  offset="0" style="stop-color:#00BF91"/>
	<stop  offset="1" style="stop-color:#0042FF"/>
</linearGradient>
<polygon fill="url(#SVGID_1_)" points="-555.941,641.62 -569.545,618.059 -583.134,618.059 -555.941,665.156 -528.749,618.059 
	-542.338,618.059 "/>
<circle fill="#5785BC" cx="-602.943" cy="740.559" r="54.5"/>
<polygon fill="#FFFFFF" points="-575.749,745.059 -569.443,757.059 -636.443,757.059 -630.134,745.059 "/>
<polygon fill="#FFFFFF" points="-602.941,740.62 -616.545,717.059 -630.134,717.059 -602.941,764.156 -575.749,717.059 
	-589.338,717.059 "/>
<circle fill="#5785BC" cx="-476.943" cy="737.559" r="54.5"/>
<polygon fill="none" stroke="#FFFFFF" stroke-width="4" stroke-miterlimit="10" points="-449.749,744.059 -443.443,756.059 
	-510.443,756.059 -504.134,744.059 "/>
<polygon fill="#FFFFFF" points="-476.941,738.62 -490.545,715.059 -504.134,715.059 -476.941,762.156 -449.749,715.059 
	-463.338,715.059 "/>
<circle fill="#5785BC" cx="-602.943" cy="864.559" r="54.5"/>
<circle fill="#5785BC" cx="-350.943" cy="865.559" r="54.5"/>
<polygon fill="#45586B" points="-575.749,871.059 -569.443,883.059 -636.443,883.059 -630.134,871.059 "/>
<polygon fill="#FFFFFF" points="-602.941,865.62 -616.545,842.059 -630.134,842.059 -602.941,889.156 -575.749,842.059 
	-589.338,842.059 "/>
<polygon fill="#5785BC" points="-498.431,919.059 -529.73,879.996 -518.56,831.147 -473.331,809.413 -428.103,831.217 
	-416.932,879.984 -448.231,919.059 "/>
<polygon fill="#45586B" points="-446.137,876.059 -439.831,888.059 -506.831,888.059 -500.521,876.059 "/>
<polygon fill="#FFFFFF" points="-473.331,870.62 -486.935,847.059 -500.523,847.059 -473.331,894.156 -446.139,847.059 
	-459.728,847.059 "/>
<polygon fill="#5785BC" points="-369.112,789.059 -396.354,766.617 -402.528,731.806 -384.747,701.113 -351.331,689.002 
	-317.915,701.19 -300.134,732.002 -306.309,766.611 -333.55,789.059 "/>
<polygon fill="#45586B" points="-324.137,752.059 -317.831,761.059 -384.831,761.059 -378.521,752.059 "/>
<polygon fill="#303E49" points="-378.524,770.059 -384.83,761.059 -317.83,761.059 -324.14,770.059 "/>
<polygon fill="#FFFFFF" points="-351.331,744.62 -364.935,721.059 -378.523,721.059 -351.331,768.156 -324.139,721.059 
	-337.728,721.059 "/>
<polygon fill="#45586B" points="-324.137,872.059 -317.831,881.059 -384.831,881.059 -378.521,872.059 "/>
<polygon fill="#303E49" points="-378.524,890.059 -384.83,881.059 -317.83,881.059 -324.14,890.059 "/>
<polygon fill="#FFFFFF" points="-351.331,871.62 -364.935,848.059 -378.523,848.059 -351.331,895.156 -324.139,848.059 
	-337.728,848.059 "/>
<g>
	<circle fill="#5785BC" cx="399.78" cy="400.282" r="396.282"/>
	<polygon fill="#45586B" points="594.697,447.059 640.549,513.059 153.375,513.059 199.254,447.059 	"/>
	<polygon fill="#303E49" points="199.232,579.059 153.381,513.059 640.554,513.059 594.677,579.059 	"/>
	<polygon fill="#FFFFFF" points="396.961,444.381 298.047,273.059 199.238,273.059 396.961,615.518 594.684,273.059 
		495.874,273.059 	"/>
</g>
</svg>
